<?xml version="1.0" encoding="utf-8"?>
<!-- Generator: Adobe Illustrator 15.1.0, SVG Export Plug-In . SVG Version: 6.00 Build 0)  -->
<!DOCTYPE svg PUBLIC "-//W3C//DTD SVG 1.1//EN" "http://www.w3.org/Graphics/SVG/1.1/DTD/svg11.dtd">
<svg version="1.1" id="Layer_1" xmlns="http://www.w3.org/2000/svg" xmlns:xlink="http://www.w3.org/1999/xlink" x="0px" y="0px"
	 width="200.573px" height="187.756px" viewBox="0 0 200.573 187.756" enable-background="new 0 0 200.573 187.756"
	 xml:space="preserve">
<path fill="#010101" d="M200.573,80.958C200.573,36.247,155.673,0,100.286,0C44.9,0,0,36.247,0,80.958
	c0,44.71,44.9,80.957,100.286,80.957c6.394,0,12.634-0.504,18.697-1.428c5.146,4.185,19.019,12.831,52.937,21.901
	c0,0-13.327-15.614-14.016-35.19C183.703,132.549,200.573,108.352,200.573,80.958z"/>
<g>
	<path fill="#FFFFFF" d="M101.422,103.628c0,0-17.75-1.5-21.25,11.5c0,0-3.5,11.25,7.5,16.25c0,0,15.25,7.5,22-3.75
		c0,0,3.5-6.5,0-16.25C109.672,111.378,106.096,103.538,101.422,103.628z"/>
	<path fill="#FFFFFF" d="M90.844,24.358c0,0-5.25,1.5-6,8.25l-2,16.25c0,0-2.5,25,2.75,35c0,0,4.5,10.25,10.5,10.25
		c0,0,8.75,2.5,12-20.5l6.25-31c0,0,2.5-12-7.5-16.5C106.844,26.108,99.094,22.608,90.844,24.358z"/>
</g>
</svg>
